Coordinates
version=1
nRows=10
nColumns=40
inDegrees=yes

Units are S.I. units (second, meters, Newtons, ...)
Angles are in degrees.

endheader
time	pelvis_tilt	pelvis_list	pelvis_rotation	pelvis_tx	pelvis_ty	pelvis_tz	hip_flexion_r	hip_adduction_r	hip_rotation_r	knee_angle_r	knee_angle_r_beta	ankle_angle_r	subtalar_angle_r	mtp_angle_r	hip_flexion_l	hip_adduction_l	hip_rotation_l	knee_angle_l	knee_angle_l_beta	ankle_angle_l	subtalar_angle_l	mtp_angle_l	lumbar_extension	lumbar_bending	lumbar_rotation	arm_flex_r	arm_add_r	arm_rot_r	elbow_flex_r	pro_sup_r	wrist_flex_r	wrist_dev_r	arm_flex_l	arm_add_l	arm_rot_l	elbow_flex_l	pro_sup_l	wrist_flex_l	wrist_dev_l
     54.54250000	     -1.86189910	     -5.11515515	     -0.42703868	      0.99730586	      0.92200101	      0.45283953	     19.82632506	      2.29721319	    -12.49533279	     23.84751689	     23.84751689	      8.34728725	     -4.49646719	     -2.32349212	      5.19102320	    -10.50394503	     -4.75978279	     44.16351599	     44.16351599	     11.26262702	    -14.77323481	    -10.48073972	     -8.05029491	      7.74121475	      3.57761817	    -15.25719658	    -11.27298675	    -12.99379977	     22.70609780	     47.46060110	      0.00000000	      0.00000000	     19.40009487	    -10.91004876	    -10.30062645	     84.60368761	     48.14425214	      0.00000000	      0.00000000
     54.55485714	     -1.85958176	     -5.35793798	     -0.28475169	      0.99706031	      0.92317014	      0.45529732	     18.94915782	      2.69902121	    -12.94744728	     23.19854566	     23.19854566	      8.68973731	     -3.78780668	     -2.43563255	      7.28061423	    -11.22232275	     -4.33629653	     48.05108044	     48.05108044	      9.51672910	    -16.09428438	     -9.60572643	     -8.14794655	      7.91343773	      3.85902970	    -14.28352603	    -11.45356401	    -12.87142581	     23.13049091	     47.43538491	      0.00000000	      0.00000000	     19.03527726	    -10.64181924	     -9.98563943	     84.45651873	     48.12109557	      0.00000000	      0.00000000
     54.56721429	     -1.99597278	     -5.43223826	     -0.10770652	      0.99662708	      0.92408594	      0.45736097	     18.22042562	      2.82032808	    -13.69339530	     22.54745046	     22.54745046	      9.00661028	     -2.58210438	     -2.93742809	      9.82802876	    -11.53097843	     -3.58470937	     52.34025165	     52.34025165	     10.68278961	    -16.27445412	     -1.52112682	     -8.05818595	      7.91789310	      4.03715161	    -13.48324772	    -11.75385083	    -11.48538672	     24.11461300	     47.21199465	      0.00000000	      0.00000000	     18.34961614	    -10.67037956	     -9.17400153	     84.12026916	     48.08959560	      0.00000000	      0.00000000
     54.57957143	     -2.03008125	     -5.68387815	      0.02774132	      0.99615595	      0.92490534	      0.45962634	     17.41771391	      3.25134528	    -14.08132772	     21.92175280	     21.92175280	      9.29230263	     -2.03855393	     -2.98624130	     11.94948253	    -12.27327527	     -3.35371502	     55.60990629	     55.60990629	      9.23208840	    -17.43781300	     -0.84708903	     -8.11818003	      8.07067166	      4.36669604	    -12.22833581	    -12.00992844	    -11.40046893	     24.60374549	     47.19216032	      0.00000000	      0.00000000	     17.80635066	    -10.26993161	     -8.83067207	     83.82204367	     48.06033082	      0.00000000	      0.00000000
     54.59192857	     -2.16558777	     -5.79727593	      0.25102027	      0.99552070	      0.92555420	      0.46146520	     16.68693173	      3.43023283	    -14.82061740	     21.22886585	     21.22886585	      9.51354579	     -0.92270197	     -3.38101557	     14.47625985	    -12.59999368	     -2.69501442	     59.10443593	     59.10443593	     10.81739795	    -17.64384695	      6.91663260	     -7.98774003	      8.10069582	      4.44107509	    -11.05452360	    -12.37018566	    -10.27511614	     25.24008541	     47.03224069	      0.00000000	      0.00000000	     17.01165162	    -10.31105470	     -8.00401923	     83.08367826	     48.01639902	      0.00000000	      0.00000000
     54.60428571	     -2.20519775	     -6.03424438	      0.46730039	      0.99481016	      0.92615378	      0.46343913	     15.91362135	      3.85486743	    -15.16445630	     20.59102655	     20.59102655	      9.76762611	     -0.52117636	     -3.39472252	     16.58258413	    -13.28049654	     -2.43271498	     61.57106113	     61.57106113	     10.11418062	    -18.40127684	      7.48532711	     -8.03983937	      8.24601881	      4.66689731	     -9.66916465	    -12.61433677	    -10.18434518	     25.80495275	     47.00906606	      0.00000000	      0.00000000	     16.25240362	     -9.99415770	     -7.63545374	     82.52881713	     47.97914721	      0.00000000	      0.00000000
     54.61664286	     -2.22064327	     -6.14442603	      0.69634074	      0.99399204	      0.92685254	      0.46509851	     15.10273211	      4.09031162	    -15.65202348	     19.93483025	     19.93483025	      9.91560053	      0.20530426	     -3.74632759	     18.78484002	    -13.62151303	     -1.96413374	     63.89349276	     63.89349276	     11.49181293	    -18.59218374	     12.90508349	     -8.06203527	      8.24205339	      4.75124479	     -8.07286076	    -12.94955754	     -9.30621212	     26.37208952	     46.89506822	      0.00000000	      0.00000000	     15.51341213	     -9.95477239	     -6.85765172	     81.28264655	     47.91818679	      0.00000000	      0.00000000
     54.62900000	     -2.20302958	     -6.27479039	      0.93867092	      0.99307150	      0.92755747	      0.46670136	     14.26097287	      4.41917573	    -15.87605861	     19.23497976	     19.23497976	     10.04564117	      0.47027374	     -3.91062535	     20.76973273	    -14.02547932	     -1.62336248	     65.45720517	     65.45720517	     11.96990853	    -18.83705486	     14.91196739	     -8.15814445	      8.26757391	      4.83757608	     -6.44533606	    -13.28924152	     -8.59067602	     27.15880518	     46.78755483	      0.00000000	      0.00000000	     14.68853532	     -9.73821218	     -6.40672423	     80.13096450	     47.88139963	      0.00000000	      0.00000000
     54.64135714	     -2.17365479	     -6.32059510	      1.17431406	      0.99201721	      0.92826842	      0.46813745	     13.47820058	      4.64764908	    -16.01239972	     18.65698263	     18.65698263	     10.26490980	      0.65498779	     -3.89080646	     22.57906108	    -14.29576496	     -1.35794252	     66.34425504	     66.34425504	     12.01151735	    -19.02391719	     15.00540822	     -8.33435724	      8.18450996	      5.01053999	     -4.72265943	    -13.54214006	     -8.55112071	     27.89545569	     46.76577410	      0.00000000	      0.00000000	     13.74642991	     -9.38547479	     -6.01158677	     79.27909001	     47.83570866	      0.00000000	      0.00000000
     54.65371429	     -2.14310678	     -6.34548418	      1.46962655	      0.99087832	      0.92910586	      0.46930931	     12.59126143	      4.87338670	    -16.17896758	     17.86207578	     17.86207578	     10.39834450	      0.84456891	     -3.83935844	     24.31875109	    -14.38298311	     -0.96761002	     66.68050464	     66.68050464	     12.24927691	    -19.11297001	     15.34490175	     -8.43230951	      8.12635705	      4.81894905	     -2.74576490	    -13.77325596	     -8.48410167	     28.83811132	     46.73384080	      0.00000000	      0.00000000	     12.69806511	     -9.29319451	     -5.60194166	     77.80220894	     47.77631670	      0.00000000	      0.00000000
